# Blender v3.6.2 OBJ File: ''
# www.blender.org
mtllib Thunder.mtl
o Lightning_Plane
v -0.593114 0.052790 0.000947
v 0.593114 0.052790 -0.000948
v -0.144691 19.087347 0.989477
v 0.144691 19.087347 -0.989477
v -0.155560 18.085529 0.987827
v -0.146630 17.083710 0.770390
v 0.022721 16.081890 -0.090898
v 0.159119 15.080070 -0.506696
v -0.193130 14.078253 0.479571
v -0.186857 13.076433 0.364950
v 0.646677 12.074615 -1.011026
v -0.287383 11.079629 0.359359
v -1.173006 10.095276 1.181133
v -2.183752 9.103593 1.713237
v -4.154502 8.076005 2.290555
v -3.191671 7.078940 1.491529
v -1.563069 6.131771 0.600498
v -1.853313 5.126492 0.516310
v 0.334079 4.148065 -0.064706
v -0.381145 3.120149 0.045273
v -0.860959 2.071704 0.051701
v -0.964457 1.019188 0.018975
v 0.964457 1.019189 -0.018976
v 1.051380 2.062344 -0.062690
v 1.379108 3.094866 -0.162193
v 2.703582 4.066249 -0.487363
v 0.705537 5.199623 -0.203430
v 0.768029 6.176428 -0.300338
v -0.983651 7.129230 0.498935
v -1.738925 8.098876 1.107487
v -0.106913 9.081531 0.085744
v 0.915034 10.071189 -0.920469
v 1.362746 11.072797 -1.677282
v 2.133864 12.074616 -2.991754
v 0.839823 13.076434 -1.629397
v 0.588475 14.078253 -1.457944
v 0.874144 15.080072 -2.565895
v 0.514936 16.081890 -2.029385
v 0.227320 17.083710 -1.194338
v 0.155560 18.085529 -0.987826
v -1.322120 0.000000 1.322120
v 1.322120 0.000000 1.322120
v -1.322120 0.000000 -1.322120
v 1.322120 0.000000 -1.322120
v 0.000000 0.115637 -0.319522
v -0.000000 1.248734 -1.950873
v 0.062336 0.115637 -0.313382
v 0.380596 1.248734 -1.913387
v 0.122276 0.115637 -0.295200
v 0.746567 1.248734 -1.802371
v 0.177517 0.115637 -0.265673
v 1.083847 1.248734 -1.622091
v 0.225936 0.115637 -0.225936
v 1.379475 1.248734 -1.379475
v 0.265673 0.115637 -0.177517
v 1.622092 1.248734 -1.083847
v 0.295200 0.115637 -0.122276
v 1.802372 1.248734 -0.746567
v 0.313382 0.115637 -0.062336
v 1.913387 1.248734 -0.380596
v 0.319522 0.115637 0.000000
v 1.950873 1.248734 0.000000
v 0.313382 0.115637 0.062336
v 1.913387 1.248734 0.380596
v 0.295200 0.115637 0.122276
v 1.802372 1.248735 0.746567
v 0.265673 0.115637 0.177517
v 1.622092 1.248735 1.083847
v 0.225936 0.115637 0.225936
v 1.379475 1.248735 1.379475
v 0.177517 0.115637 0.265673
v 1.083847 1.248735 1.622092
v 0.122276 0.115637 0.295200
v 0.746567 1.248735 1.802372
v 0.062336 0.115637 0.313382
v 0.380596 1.248735 1.913388
v 0.000000 0.115637 0.319522
v -0.000000 1.248735 1.950873
v -0.062336 0.115637 0.313382
v -0.380596 1.248735 1.913388
v -0.122276 0.115637 0.295200
v -0.746567 1.248735 1.802372
v -0.177517 0.115637 0.265673
v -1.083847 1.248735 1.622092
v -0.225936 0.115637 0.225936
v -1.379475 1.248735 1.379475
v -0.265673 0.115637 0.177517
v -1.622092 1.248735 1.083847
v -0.295200 0.115637 0.122276
v -1.802372 1.248735 0.746567
v -0.313382 0.115637 0.062336
v -1.913387 1.248734 0.380596
v -0.319522 0.115637 0.000000
v -1.950873 1.248734 0.000000
v -0.313382 0.115637 -0.062336
v -1.913387 1.248734 -0.380596
v -0.295200 0.115637 -0.122276
v -1.802372 1.248734 -0.746567
v -0.265673 0.115637 -0.177517
v -1.622092 1.248734 -1.083847
v -0.225936 0.115637 -0.225936
v -1.379475 1.248734 -1.379475
v -0.177517 0.115637 -0.265673
v -1.083847 1.248734 -1.622091
v -0.122276 0.115637 -0.295200
v -0.746567 1.248734 -1.802371
v -0.062336 0.115637 -0.313382
v -0.380596 1.248734 -1.913387
vt 0.000000 0.947368
vt 1.000000 0.947368
vt 1.000000 1.000000
vt 0.000000 1.000000
vt 0.000000 0.000000
vt 1.000000 0.000000
vt 1.000000 0.052632
vt 0.000000 0.052632
vt 1.000000 0.105263
vt 0.000000 0.105263
vt 1.000000 0.157895
vt 0.000000 0.157895
vt 1.000000 0.210526
vt 0.000000 0.210526
vt 1.000000 0.263158
vt 0.000000 0.263158
vt 1.000000 0.315789
vt 0.000000 0.315789
vt 1.000000 0.368421
vt 0.000000 0.368421
vt 1.000000 0.421053
vt 0.000000 0.421053
vt 1.000000 0.473684
vt 0.000000 0.473684
vt 1.000000 0.526316
vt 0.000000 0.526316
vt 1.000000 0.578947
vt 0.000000 0.578947
vt 1.000000 0.631579
vt 0.000000 0.631579
vt 1.000000 0.684211
vt 0.000000 0.684211
vt 1.000000 0.736842
vt 0.000000 0.736842
vt 1.000000 0.789474
vt 0.000000 0.789474
vt 1.000000 0.842105
vt 0.000000 0.842105
vt 1.000000 0.894737
vt 0.000000 0.894737
vt 0.000000 0.000000
vt 1.000000 0.000000
vt 1.000000 1.000000
vt 0.000000 1.000000
vt 1.000000 0.000000
vt 0.968750 0.000000
vt 0.968750 1.000000
vt 1.000000 1.000000
vt 0.937500 0.000000
vt 0.937500 1.000000
vt 0.906250 0.000000
vt 0.906250 1.000000
vt 0.875000 0.000000
vt 0.875000 1.000000
vt 0.843750 0.000000
vt 0.843750 1.000000
vt 0.812500 0.000000
vt 0.812500 1.000000
vt 0.781250 0.000000
vt 0.781250 1.000000
vt 0.750000 0.000000
vt 0.750000 1.000000
vt 0.718750 0.000000
vt 0.718750 1.000000
vt 0.687500 0.000000
vt 0.687500 1.000000
vt 0.656250 0.000000
vt 0.656250 1.000000
vt 0.625000 0.000000
vt 0.625000 1.000000
vt 0.593750 0.000000
vt 0.593750 1.000000
vt 0.562500 0.000000
vt 0.562500 1.000000
vt 0.531250 0.000000
vt 0.531250 1.000000
vt 0.500000 0.000000
vt 0.500000 1.000000
vt 0.468750 0.000000
vt 0.468750 1.000000
vt 0.437500 0.000000
vt 0.437500 1.000000
vt 0.406250 0.000000
vt 0.406250 1.000000
vt 0.375000 0.000000
vt 0.375000 1.000000
vt 0.343750 0.000000
vt 0.343750 1.000000
vt 0.312500 0.000000
vt 0.312500 1.000000
vt 0.281250 0.000000
vt 0.281250 1.000000
vt 0.250000 0.000000
vt 0.250000 1.000000
vt 0.218750 0.000000
vt 0.218750 1.000000
vt 0.187500 0.000000
vt 0.187500 1.000000
vt 0.156250 0.000000
vt 0.156250 1.000000
vt 0.125000 0.000000
vt 0.125000 1.000000
vt 0.093750 0.000000
vt 0.093750 1.000000
vt 0.062500 0.000000
vt 0.062500 1.000000
vt 0.031250 0.000000
vt 0.031250 1.000000
vt 0.000000 0.000000
vt 0.000000 1.000000
vn 0.9871 0.0016 0.1599
vn 0.9869 0.0018 0.1614
vn 0.9887 -0.0000 0.1501
vn 0.0128 -0.0000 0.9999
vn 0.0283 0.0009 0.9996
vn 0.0276 0.0009 0.9996
vn 0.0663 0.0101 0.9977
vn 0.0592 0.0078 0.9982
vn 0.1304 0.0452 0.9904
vn 0.1088 0.0309 0.9936
vn 0.1833 0.0550 0.9815
vn 0.1936 0.0535 0.9796
vn 0.2616 0.0097 0.9651
vn 0.2932 -0.0252 0.9557
vn 0.3327 -0.0699 0.9404
vn 0.3565 -0.0975 0.9292
vn 0.3920 -0.1619 0.9056
vn 0.4097 -0.2396 0.8802
vn 0.4668 -0.2647 0.8438
vn 0.4541 -0.2641 0.8509
vn 0.6405 -0.1311 0.7567
vn 0.5481 -0.2308 0.8039
vn 0.7268 0.0048 0.6869
vn 0.6825 -0.0731 0.7272
vn 0.7710 0.1227 0.6249
vn 0.7497 0.0561 0.6594
vn 0.8051 0.1582 0.5717
vn 0.8072 0.1587 0.5685
vn 0.8612 0.1288 0.4917
vn 0.8911 0.0843 0.4460
vn 0.9232 0.0635 0.3790
vn 0.9170 0.0609 0.3943
vn 0.9456 0.0862 0.3137
vn 0.9432 0.0822 0.3218
vn 0.9601 0.0818 0.2674
vn 0.9688 0.0593 0.2407
vn 0.9795 0.0259 0.1997
vn 0.9824 0.0150 0.1860
vn 0.0000 1.0000 0.0000
vn 0.0000 0.8213 0.5705
vn -0.1113 0.8213 0.5595
vn -0.2183 0.8213 0.5270
vn -0.3169 0.8213 0.4743
vn -0.4034 0.8213 0.4034
vn -0.4743 0.8213 0.3169
vn -0.5270 0.8213 0.2183
vn -0.5595 0.8213 0.1113
vn -0.5705 0.8213 0.0000
vn -0.5595 0.8213 -0.1113
vn -0.5270 0.8213 -0.2183
vn -0.4743 0.8213 -0.3169
vn -0.4034 0.8213 -0.4034
vn -0.3169 0.8213 -0.4743
vn -0.2183 0.8213 -0.5270
vn -0.1113 0.8213 -0.5595
vn 0.0000 0.8213 -0.5705
vn 0.1113 0.8213 -0.5595
vn 0.2183 0.8213 -0.5270
vn 0.3169 0.8213 -0.4743
vn 0.4034 0.8213 -0.4034
vn 0.4743 0.8213 -0.3169
vn 0.5270 0.8213 -0.2183
vn 0.5595 0.8213 -0.1113
vn 0.5705 0.8213 0.0000
vn 0.5595 0.8213 0.1113
vn 0.5270 0.8213 0.2183
vn 0.4743 0.8213 0.3169
vn 0.4034 0.8213 0.4034
vn 0.3169 0.8213 0.4743
vn 0.2183 0.8213 0.5270
vn 0.1113 0.8213 0.5595
usemtl Lightning
s 1
f 5/1/1 40/2/2 4/3/3 3/4/3
f 1/5/4 2/6/4 23/7/5 22/8/6
f 22/8/6 23/7/5 24/9/7 21/10/8
f 21/10/8 24/9/7 25/11/9 20/12/10
f 20/12/10 25/11/9 26/13/11 19/14/12
f 19/14/12 26/13/11 27/15/13 18/16/14
f 18/16/14 27/15/13 28/17/15 17/18/16
f 17/18/16 28/17/15 29/19/17 16/20/18
f 16/20/18 29/19/17 30/21/19 15/22/20
f 15/22/20 30/21/19 31/23/21 14/24/22
f 14/24/22 31/23/21 32/25/23 13/26/24
f 13/26/24 32/25/23 33/27/25 12/28/26
f 12/28/26 33/27/25 34/29/27 11/30/28
f 11/30/28 34/29/27 35/31/29 10/32/30
f 10/32/30 35/31/29 36/33/31 9/34/32
f 9/34/32 36/33/31 37/35/33 8/36/34
f 8/36/34 37/35/33 38/37/35 7/38/36
f 7/38/36 38/37/35 39/39/37 6/40/38
f 6/40/38 39/39/37 40/2/2 5/1/1
usemtl Ground_Mark
f 41/41/39 42/42/39 44/43/39 43/44/39
usemtl Strike_Effect
f 45/45/40 47/46/41 48/47/41 46/48/40
f 47/46/41 49/49/42 50/50/42 48/47/41
f 49/49/42 51/51/43 52/52/43 50/50/42
f 51/51/43 53/53/44 54/54/44 52/52/43
f 53/53/44 55/55/45 56/56/45 54/54/44
f 55/55/45 57/57/46 58/58/46 56/56/45
f 57/57/46 59/59/47 60/60/47 58/58/46
f 59/59/47 61/61/48 62/62/48 60/60/47
f 61/61/48 63/63/49 64/64/49 62/62/48
f 63/63/49 65/65/50 66/66/50 64/64/49
f 65/65/50 67/67/51 68/68/51 66/66/50
f 67/67/51 69/69/52 70/70/52 68/68/51
f 69/69/52 71/71/53 72/72/53 70/70/52
f 71/71/53 73/73/54 74/74/54 72/72/53
f 73/73/54 75/75/55 76/76/55 74/74/54
f 75/75/55 77/77/56 78/78/56 76/76/55
f 77/77/56 79/79/57 80/80/57 78/78/56
f 79/79/57 81/81/58 82/82/58 80/80/57
f 81/81/58 83/83/59 84/84/59 82/82/58
f 83/83/59 85/85/60 86/86/60 84/84/59
f 85/85/60 87/87/61 88/88/61 86/86/60
f 87/87/61 89/89/62 90/90/62 88/88/61
f 89/89/62 91/91/63 92/92/63 90/90/62
f 91/91/63 93/93/64 94/94/64 92/92/63
f 93/93/64 95/95/65 96/96/65 94/94/64
f 95/95/65 97/97/66 98/98/66 96/96/65
f 97/97/66 99/99/67 100/100/67 98/98/66
f 99/99/67 101/101/68 102/102/68 100/100/67
f 101/101/68 103/103/69 104/104/69 102/102/68
f 103/103/69 105/105/70 106/106/70 104/104/69
f 105/105/70 107/107/71 108/108/71 106/106/70
f 107/107/71 45/109/40 46/110/40 108/108/71
